<?xml version="1.0" encoding="utf-8"?>
<!-- Generator: Adobe Illustrator 18.0.0, SVG Export Plug-In . SVG Version: 6.00 Build 0)  -->
<!DOCTYPE svg PUBLIC "-//W3C//DTD SVG 1.1//EN" "http://www.w3.org/Graphics/SVG/1.1/DTD/svg11.dtd">
<svg version="1.1" id="Layer_1" xmlns="http://www.w3.org/2000/svg" xmlns:xlink="http://www.w3.org/1999/xlink" x="0px" y="0px"
	 viewBox="0 0 64 64" enable-background="new 0 0 64 64" xml:space="preserve">
<g>
	<path d="M55,14.9V11c0-2.2-1.8-4-4-4h-7.9L32-0.4L20.9,7h-8c-2.2,0-4,1.8-4,4v4L0,20.9V64h64V20.9L55,14.9z M20.1,41.1L4,57.2V26.5
		L20.1,41.1z M26.8,40h10.3l20,20H6.8L26.8,40z M43.9,41.1L60,26.5v30.7L43.9,41.1z M58.8,22.2L55,25.6v-5.9L58.8,22.2z M32,4.4
		L35.9,7h-7.8L32,4.4z M51,11v18.3l-9.9,9L38.8,36H25.2l-2.2,2.2l-10-9.1V11H51z M8.9,25.5l-3.7-3.3l3.7-2.4V25.5z"/>
	<rect x="17" y="15" width="30" height="4"/>
	<rect x="17" y="23" width="30" height="4"/>
</g>
</svg>
